# xmcd
#
# Track frame offsets:
#	150
#	22385
#	32172
#	47534
#
# Disc length: 759 seconds
#
# Revision: 0
# Processed by: cddbd v1.5.2PL0 Copyright (c) Steve Scherf et al.
# Submitted via: EZCDAudioConverter 3.1.7.1
#
DISCID=2f02f504
DTITLE=Pat Wilson - Coming Home
DYEAR=1900
DGENRE=Country
TTITLE0=Coming Home
TTITLE1=Don't Get Caught Up
TTITLE2=Cut You Loose
TTITLE3=Why Don't You Learn
EXTD=
EXTT0=
EXTT1=
EXTT2=
EXTT3=
PLAYORDER=
